<?xml version="1.0" standalone="no"?>
<!DOCTYPE svg PUBLIC "-//W3C//DTD SVG 20010904//EN"
 "http://www.w3.org/TR/2001/REC-SVG-20010904/DTD/svg10.dtd">
<svg version="1.0" xmlns="http://www.w3.org/2000/svg"
 width="16.000000pt" height="16.000000pt" viewBox="0 0 16.000000 16.000000"
 preserveAspectRatio="xMidYMid meet">
<metadata>
Created by potrace 1.11, written by Peter Selinger 2001-2013
</metadata>
<g transform="translate(0.000000,16.000000) scale(0.003200,-0.003200)"
fill="#000000" stroke="none">
<path d="M70 4742 l0 -238 743 0 742 0 2 -1520 c2 -1228 0 -1529 -11 -1569
-52 -199 -218 -347 -416 -370 -19 -2 -266 -4 -547 -4 l-513 -1 0 -433 0 -433
663 2 c481 0 681 4 732 13 154 28 341 83 392 117 12 8 27 14 33 14 15 0 161
90 211 130 24 19 67 59 97 88 l53 52 -6 -42 c-19 -146 -22 -135 60 -224 6 -6
44 -48 85 -93 41 -46 86 -95 100 -110 14 -15 42 -46 63 -70 22 -24 42 -39 46
-35 5 5 43 61 86 124 43 63 98 143 121 176 46 66 45 64 28 194 l-7 55 40 -36
c168 -152 461 -275 758 -319 44 -7 89 -14 99 -16 18 -3 201 -17 236 -17 17 0
117 12 151 18 71 14 91 19 163 41 389 123 642 443 701 889 4 28 10 61 13 75 3
14 7 870 9 1903 l3 1877 -238 0 -238 0 0 -1722 c-1 -948 -4 -1745 -8 -1771
-27 -188 -166 -352 -354 -419 -68 -24 -190 -31 -270 -17 -198 36 -373 211
-415 415 -9 46 -12 458 -11 1787 l0 1727 -1698 0 -1698 0 0 -238z"/>
</g>
</svg>
